<svg xmlns="http://www.w3.org/2000/svg" xmlns:xlink="http://www.w3.org/1999/xlink" version="1.1" width="256" height="256" viewBox="0 0 256 256" xml:space="preserve">

<defs>
</defs>
<g style="stroke: none; stroke-width: 0; stroke-dasharray: none; stroke-linecap: butt; stroke-linejoin: miter; stroke-miterlimit: 10; fill: none; fill-rule: nonzero; opacity: 1;" transform="translate(1.4065934065934016 1.4065934065934016) scale(2.81 2.81)" >
	<path d="M 20.098 57.048 v 25.496 c 0 3.566 2.891 6.457 6.457 6.457 h 40.891 c 3.566 0 6.457 -2.891 6.457 -6.457 V 7.457 C 73.902 3.891 71.011 1 67.446 1 H 26.554 c -3.566 0 -6.457 2.891 -6.457 6.457 V 25.8 V 57.048 z" style="stroke: none; stroke-width: 1; stroke-dasharray: none; stroke-linecap: butt; stroke-linejoin: miter; stroke-miterlimit: 10; fill: rgb(125,141,156); fill-rule: nonzero; opacity: 1;" transform=" matrix(1 0 0 1 0 0) " stroke-linecap="round" />
	<path d="M 20.098 57.048 v 20.508 h 53.804 v -70.1 C 73.902 3.891 71.011 1 67.446 1 H 26.554 c -3.566 0 -6.457 2.891 -6.457 6.457 V 25.8 V 57.048 z" style="stroke: none; stroke-width: 1; stroke-dasharray: none; stroke-linecap: butt; stroke-linejoin: miter; stroke-miterlimit: 10; fill: rgb(135,206,233); fill-rule: nonzero; opacity: 1;" transform=" matrix(1 0 0 1 0 0) " stroke-linecap="round" />
	<path d="M 56.536 7.641 H 37.464 c -3.336 0 -6.04 -2.704 -6.04 -6.04 V 1 h 31.152 v 0.601 C 62.576 4.937 59.872 7.641 56.536 7.641 z" style="stroke: none; stroke-width: 1; stroke-dasharray: none; stroke-linecap: butt; stroke-linejoin: miter; stroke-miterlimit: 10; fill: rgb(125,141,156); fill-rule: nonzero; opacity: 1;" transform=" matrix(1 0 0 1 0 0) " stroke-linecap="round" />
	<path d="M 42.968 46.423 v 4.438 c 0 1.934 1.568 3.503 3.503 3.503 h 30.447 c 1.934 0 3.503 -1.568 3.503 -3.503 V 30.654 c 0 -1.934 -1.568 -3.503 -3.503 -3.503 H 46.471 c -1.934 0 -3.503 1.568 -3.503 3.503 v 5.517 V 46.423 z" style="stroke: none; stroke-width: 1; stroke-dasharray: none; stroke-linecap: butt; stroke-linejoin: miter; stroke-miterlimit: 10; fill: rgb(253,189,64); fill-rule: nonzero; opacity: 1;" transform=" matrix(1 0 0 1 0 0) " stroke-linecap="round" />
	<path d="M 67.37 90 H 26.479 c -4.111 0 -7.457 -3.345 -7.457 -7.456 V 51.65 c 0 -0.553 0.448 -1 1 -1 s 1 0.447 1 1 v 30.894 c 0 3.009 2.448 5.456 5.457 5.456 H 67.37 c 3.009 0 5.456 -2.447 5.456 -5.456 V 63.962 c 0 -0.553 0.447 -1 1 -1 s 1 0.447 1 1 v 18.582 C 74.826 86.655 71.481 90 67.37 90 z" style="stroke: none; stroke-width: 1; stroke-dasharray: none; stroke-linecap: butt; stroke-linejoin: miter; stroke-miterlimit: 10; fill: rgb(0,0,0); fill-rule: nonzero; opacity: 1;" transform=" matrix(1 0 0 1 0 0) " stroke-linecap="round" />
	<path d="M 20.022 27.382 c -0.552 0 -1 -0.448 -1 -1 V 7.457 C 19.022 3.345 22.367 0 26.479 0 H 67.37 c 4.111 0 7.456 3.345 7.456 7.457 v 10.159 c 0 0.552 -0.447 1 -1 1 s -1 -0.448 -1 -1 V 7.457 C 72.826 4.448 70.379 2 67.37 2 H 26.479 c -3.009 0 -5.457 2.448 -5.457 5.457 v 18.925 C 21.022 26.934 20.574 27.382 20.022 27.382 z" style="stroke: none; stroke-width: 1; stroke-dasharray: none; stroke-linecap: butt; stroke-linejoin: miter; stroke-miterlimit: 10; fill: rgb(0,0,0); fill-rule: nonzero; opacity: 1;" transform=" matrix(1 0 0 1 0 0) " stroke-linecap="round" />
	<path d="M 56.46 8.642 H 37.388 c -3.882 0 -7.04 -3.158 -7.04 -7.041 V 1 c 0 -0.552 0.448 -1 1 -1 H 62.5 c 0.553 0 1 0.448 1 1 v 0.601 C 63.5 5.483 60.342 8.642 56.46 8.642 z M 32.364 2 c 0.204 2.594 2.379 4.642 5.024 4.642 H 56.46 c 2.645 0 4.82 -2.048 5.024 -4.642 H 32.364 z" style="stroke: none; stroke-width: 1; stroke-dasharray: none; stroke-linecap: butt; stroke-linejoin: miter; stroke-miterlimit: 10; fill: rgb(0,0,0); fill-rule: nonzero; opacity: 1;" transform=" matrix(1 0 0 1 0 0) " stroke-linecap="round" />
	<path d="M 73.826 78.556 H 20.022 c -0.552 0 -1 -0.447 -1 -1 s 0.448 -1 1 -1 h 53.804 c 0.553 0 1 0.447 1 1 S 74.379 78.556 73.826 78.556 z" style="stroke: none; stroke-width: 1; stroke-dasharray: none; stroke-linecap: butt; stroke-linejoin: miter; stroke-miterlimit: 10; fill: rgb(0,0,0); fill-rule: nonzero; opacity: 1;" transform=" matrix(1 0 0 1 0 0) " stroke-linecap="round" />
	<path d="M 52.096 84.307 H 41.753 c -0.552 0 -1 -0.447 -1 -1 s 0.448 -1 1 -1 h 10.343 c 0.553 0 1 0.447 1 1 S 52.648 84.307 52.096 84.307 z" style="stroke: none; stroke-width: 1; stroke-dasharray: none; stroke-linecap: butt; stroke-linejoin: miter; stroke-miterlimit: 10; fill: rgb(0,0,0); fill-rule: nonzero; opacity: 1;" transform=" matrix(1 0 0 1 0 0) " stroke-linecap="round" />
	<path d="M 76.917 55.364 H 46.471 c -2.482 0 -4.502 -2.02 -4.502 -4.503 v -4.438 c 0 -0.552 0.448 -1 1 -1 s 1 0.448 1 1 v 4.438 c 0 1.38 1.123 2.503 2.502 2.503 h 30.446 c 1.38 0 2.503 -1.123 2.503 -2.503 V 30.654 c 0 -1.38 -1.123 -2.502 -2.503 -2.502 H 46.471 c -1.38 0 -2.502 1.123 -2.502 2.502 v 5.517 c 0 0.552 -0.448 1 -1 1 s -1 -0.448 -1 -1 v -5.517 c 0 -2.482 2.02 -4.502 4.502 -4.502 h 30.446 c 2.483 0 4.503 2.02 4.503 4.502 v 20.208 C 81.42 53.345 79.4 55.364 76.917 55.364 z" style="stroke: none; stroke-width: 1; stroke-dasharray: none; stroke-linecap: butt; stroke-linejoin: miter; stroke-miterlimit: 10; fill: rgb(0,0,0); fill-rule: nonzero; opacity: 1;" transform=" matrix(1 0 0 1 0 0) " stroke-linecap="round" />
	<path d="M 61.694 45.88 c -0.242 0 -0.484 -0.088 -0.676 -0.263 L 47.27 33.003 c -0.407 -0.373 -0.435 -1.006 -0.062 -1.413 c 0.374 -0.408 1.008 -0.435 1.413 -0.061 l 13.073 11.993 L 74.768 31.53 c 0.405 -0.374 1.038 -0.347 1.413 0.061 c 0.373 0.407 0.346 1.04 -0.062 1.413 L 62.37 45.617 C 62.179 45.792 61.937 45.88 61.694 45.88 z" style="stroke: none; stroke-width: 1; stroke-dasharray: none; stroke-linecap: butt; stroke-linejoin: miter; stroke-miterlimit: 10; fill: rgb(0,0,0); fill-rule: nonzero; opacity: 1;" transform=" matrix(1 0 0 1 0 0) " stroke-linecap="round" />
	<path d="M 47.945 51.348 c -0.271 0 -0.54 -0.109 -0.737 -0.324 c -0.373 -0.406 -0.346 -1.039 0.062 -1.413 l 9.854 -9.04 c 0.405 -0.374 1.039 -0.348 1.413 0.061 c 0.373 0.407 0.346 1.04 -0.062 1.413 l -9.854 9.041 C 48.43 51.261 48.188 51.348 47.945 51.348 z" style="stroke: none; stroke-width: 1; stroke-dasharray: none; stroke-linecap: butt; stroke-linejoin: miter; stroke-miterlimit: 10; fill: rgb(0,0,0); fill-rule: nonzero; opacity: 1;" transform=" matrix(1 0 0 1 0 0) " stroke-linecap="round" />
	<path d="M 75.443 51.348 c -0.242 0 -0.484 -0.087 -0.676 -0.263 l -9.854 -9.041 c -0.407 -0.373 -0.435 -1.006 -0.062 -1.413 c 0.374 -0.409 1.008 -0.435 1.413 -0.061 l 9.854 9.04 c 0.407 0.374 0.435 1.007 0.062 1.413 C 75.983 51.238 75.714 51.348 75.443 51.348 z" style="stroke: none; stroke-width: 1; stroke-dasharray: none; stroke-linecap: butt; stroke-linejoin: miter; stroke-miterlimit: 10; fill: rgb(0,0,0); fill-rule: nonzero; opacity: 1;" transform=" matrix(1 0 0 1 0 0) " stroke-linecap="round" />
	<path d="M 45.754 42.307 H 9.58 c -0.552 0 -1 -0.448 -1 -1 s 0.448 -1 1 -1 h 36.174 c 0.552 0 1 0.448 1 1 S 46.307 42.307 45.754 42.307 z" style="stroke: none; stroke-width: 1; stroke-dasharray: none; stroke-linecap: butt; stroke-linejoin: miter; stroke-miterlimit: 10; fill: rgb(0,0,0); fill-rule: nonzero; opacity: 1;" transform=" matrix(1 0 0 1 0 0) " stroke-linecap="round" />
	<path d="M 38.65 35.4 H 20.022 c -0.552 0 -1 -0.448 -1 -1 s 0.448 -1 1 -1 H 38.65 c 0.552 0 1 0.448 1 1 S 39.202 35.4 38.65 35.4 z" style="stroke: none; stroke-width: 1; stroke-dasharray: none; stroke-linecap: butt; stroke-linejoin: miter; stroke-miterlimit: 10; fill: rgb(0,0,0); fill-rule: nonzero; opacity: 1;" transform=" matrix(1 0 0 1 0 0) " stroke-linecap="round" />
	<path d="M 38.65 49.215 H 28.469 c -0.552 0 -1 -0.447 -1 -1 s 0.448 -1 1 -1 H 38.65 c 0.552 0 1 0.447 1 1 S 39.202 49.215 38.65 49.215 z" style="stroke: none; stroke-width: 1; stroke-dasharray: none; stroke-linecap: butt; stroke-linejoin: miter; stroke-miterlimit: 10; fill: rgb(0,0,0); fill-rule: nonzero; opacity: 1;" transform=" matrix(1 0 0 1 0 0) " stroke-linecap="round" />
</g>
</svg>